<?xml version="1.0" encoding="UTF-8"?>
<svg version="1.1" viewBox="-279 -336 1024 1024" xmlns="http://www.w3.org/2000/svg">
  <!-- Wall mount foot -->
  <rect x="148" y="28" width="120" height="38" rx="12" fill="#000"/>
  <!-- Mount arm -->
  <rect x="191" y="66" width="34" height="132" rx="8" fill="#000"/>
  <!-- Camera housing body (ends at x=315 so lens glass shows white background) -->
  <rect x="54" y="193" width="261" height="132" rx="22" fill="#000"/>
  <!-- Lens barrel overlap -->
  <rect x="286" y="207" width="72" height="104" rx="10" fill="#000"/>
  <!-- Lens: outer ring (52px) / glass gap (31px) / pupil (13px) via evenodd -->
  <path fill-rule="evenodd" fill="#000"
    d="M 360,259 m -52,0 a 52,52 0 1,0 104,0 a 52,52 0 1,0 -104,0
       M 360,259 m -31,0 a 31,31 0 1,0  62,0 a 31,31 0 1,0  -62,0
       M 360,259 m -13,0 a 13,13 0 1,0  26,0 a 13,13 0 1,0  -26,0"/>
</svg>
